<svg width="20" height="20" viewBox="0 0 20 20" fill="none" xmlns="http://www.w3.org/2000/svg">
<path d="M11 14C11 14.5523 10.5523 15 10 15C9.44771 15 9 14.5523 9 14C9 13.4477 9.44771 13 10 13C10.5523 13 11 13.4477 11 14Z" fill="black"/>
<path d="M8.5 8C8.5 7.17157 9.17157 6.5 10 6.5C10.8284 6.5 11.5 7.17157 11.5 8C11.5 8.29427 11.3417 8.45618 10.7134 8.86874L10.6485 8.91113C10.1373 9.24437 9.25 9.82278 9.25 10.9913V11.2522C9.25 11.6664 9.58579 12.0022 10 12.0022C10.4142 12.0022 10.75 11.6664 10.75 11.2522V10.9913C10.75 10.6971 10.9083 10.5352 11.5366 10.1226L11.6015 10.0802C12.1127 9.74697 13 9.16857 13 8C13 6.34315 11.6569 5 10 5C8.34315 5 7 6.34315 7 8C7 8.41421 7.33579 8.75 7.75 8.75C8.16421 8.75 8.5 8.41421 8.5 8Z" fill="black"/>
<path fill-rule="evenodd" clip-rule="evenodd" d="M1 10C1 5.02944 5.02944 1 10 1C14.9706 1 19 5.02944 19 10C19 14.9706 14.9706 19 10 19C5.02944 19 1 14.9706 1 10ZM10 2.5C5.85786 2.5 2.5 5.85786 2.5 10C2.5 14.1421 5.85786 17.5 10 17.5C14.1421 17.5 17.5 14.1421 17.5 10C17.5 5.85786 14.1421 2.5 10 2.5Z" fill="black"/>
<path d="M11 14C11 14.5523 10.5523 15 10 15C9.44771 15 9 14.5523 9 14C9 13.4477 9.44771 13 10 13C10.5523 13 11 13.4477 11 14Z" stroke="black" stroke-width="0.3" stroke-linecap="round" stroke-linejoin="round"/>
<path d="M8.5 8C8.5 7.17157 9.17157 6.5 10 6.5C10.8284 6.5 11.5 7.17157 11.5 8C11.5 8.29427 11.3417 8.45618 10.7134 8.86874L10.6485 8.91113C10.1373 9.24437 9.25 9.82278 9.25 10.9913V11.2522C9.25 11.6664 9.58579 12.0022 10 12.0022C10.4142 12.0022 10.75 11.6664 10.75 11.2522V10.9913C10.75 10.6971 10.9083 10.5352 11.5366 10.1226L11.6015 10.0802C12.1127 9.74697 13 9.16857 13 8C13 6.34315 11.6569 5 10 5C8.34315 5 7 6.34315 7 8C7 8.41421 7.33579 8.75 7.75 8.75C8.16421 8.75 8.5 8.41421 8.5 8Z" stroke="black" stroke-width="0.3" stroke-linecap="round" stroke-linejoin="round"/>
<path fill-rule="evenodd" clip-rule="evenodd" d="M1 10C1 5.02944 5.02944 1 10 1C14.9706 1 19 5.02944 19 10C19 14.9706 14.9706 19 10 19C5.02944 19 1 14.9706 1 10ZM10 2.5C5.85786 2.5 2.5 5.85786 2.5 10C2.5 14.1421 5.85786 17.5 10 17.5C14.1421 17.5 17.5 14.1421 17.5 10C17.5 5.85786 14.1421 2.5 10 2.5Z" stroke="black" stroke-width="0.3" stroke-linecap="round" stroke-linejoin="round"/>
</svg>
